<svg xmlns="http://www.w3.org/2000/svg" xmlns:xlink="http://www.w3.org/1999/xlink" width="16.5" height="11.25" viewBox="0 0 16.5 11.25">
  <defs>
    <clipPath id="clip-path">
      <path id="Eye" d="M8.25,11.25A8.8,8.8,0,0,1,3.205,9.672,8.879,8.879,0,0,1,0,5.625a8.864,8.864,0,0,1,16.5,0,8.875,8.875,0,0,1-3.205,4.047A8.8,8.8,0,0,1,8.25,11.25Zm0-9.375A3.75,3.75,0,1,0,12,5.625,3.755,3.755,0,0,0,8.25,1.875Zm0,6a2.25,2.25,0,1,1,2.25-2.25A2.253,2.253,0,0,1,8.25,7.875Z" transform="translate(0.75 0.375)" fill="#6b6c6f"/>
    </clipPath>
  </defs>
  <g id="Suche" transform="translate(-0.75 -0.375)">
    <path id="Eye-2" data-name="Eye" d="M8.25,11.25A8.8,8.8,0,0,1,3.205,9.672,8.879,8.879,0,0,1,0,5.625a8.864,8.864,0,0,1,16.5,0,8.875,8.875,0,0,1-3.205,4.047A8.8,8.8,0,0,1,8.25,11.25Zm0-9.375A3.75,3.75,0,1,0,12,5.625,3.755,3.755,0,0,0,8.25,1.875Zm0,6a2.25,2.25,0,1,1,2.25-2.25A2.253,2.253,0,0,1,8.25,7.875Z" transform="translate(0.75 0.375)" fill="#6b6c6f"/>
  </g>
</svg>
