<svg xmlns="http://www.w3.org/2000/svg" width="678.494" height="431.616" viewBox="0 0 678.494 431.616">
  <g id="Grupo_1" data-name="Grupo 1" transform="translate(0 0)">
    <rect id="Retângulo_1" data-name="Retângulo 1" width="133.686" height="125.061" transform="translate(54.625 255.115)" fill="#e41e26"/>
    <rect id="Retângulo_2" data-name="Retângulo 2" width="301.872" height="1.437" transform="translate(165.311 421.864)" fill="#3f3d56"/>
    <path id="Caminho_1" data-name="Caminho 1" d="M370.935,656.218H128V444.189H370.935Zm-241.5-1.437H369.5V445.626H129.437Z" transform="translate(-128 -232.558)" fill="#e41e26"/>
    <path id="Caminho_2" data-name="Caminho 2" d="M899.03,529.75a97.03,97.03,0,1,1,97.03-97.03A97.14,97.14,0,0,1,899.03,529.75Zm0-192.623a95.593,95.593,0,1,0,95.593,95.593,95.7,95.7,0,0,0-95.593-95.593Z" transform="translate(-317.567 -202.041)" fill="#ffc211"/>
    <circle id="Elipse_1" data-name="Elipse 1" cx="46.718" cy="46.718" r="46.718" transform="translate(531.87 183.96)" fill="#ffcf44"/>
    <path id="Caminho_3" data-name="Caminho 3" d="M413.29,476.337l4.685,26.405,14.481-6.388V472.5Z" transform="translate(-116.24 -132.895)" fill="#ffb8b8"/>
    <path id="Caminho_4" data-name="Caminho 4" d="M558.54,646.542s-9.37,10.221-18.739,5.111l-1.278,44.293s-22.146,24.7-.852,25.128,17.462-8.944,17.462-8.944v-5.537l2.555-4.685,2.13.852s5.962-7.24,5.537-10.647-.852-8.092-.852-8.092l-5.111-22.572Z" transform="translate(-240.621 -289.471)" fill="#2f2e41"/>
    <path id="Caminho_5" data-name="Caminho 5" d="M632.626,371.178l18.313,15.332-9.37,11.073-23.849-13.2Z" transform="translate(-173.738 -104.396)" fill="#ffb8b8"/>
    <path id="Caminho_6" data-name="Caminho 6" d="M771.2,549.789l11.073-14.054,17.462,13.2L820.6,560.011s23.424,8.518,17.887,16.61-18.313,5.536-18.313,5.536l-2.981-2.129-4.685-1.278,1.278,2.555-10.221-.426-6.814-8.092-5.537-7.24-8.944-8.518Z" transform="translate(-308.904 -258.306)" fill="#2f2e41"/>
    <path id="Caminho_7" data-name="Caminho 7" d="M476.991,284.495l-4.685,35.349-19.591,55.792s-20.869,29.386-5.962,30.238,15.332-27.257,15.332-27.257l25.554-46.422,6.814-46Z" transform="translate(-216.141 -187.643)" fill="#ffb8b8"/>
    <path id="Caminho_8" data-name="Caminho 8" d="M614.877,299.9l2.981,40.46,24.7,46.422s17.036,15.332,7.24,20.443-18.739-20.869-18.739-20.869l-29.386-41.311L596.99,302.03Z" transform="translate(-259.906 -191.976)" fill="#ffb8b8"/>
    <circle id="Elipse_2" data-name="Elipse 2" cx="21.72" cy="21.72" r="21.72" transform="translate(305.567 12.951)" fill="#ffb8b8"/>
    <path id="Caminho_9" data-name="Caminho 9" d="M549.87,205.686s-3.833,23-20.017,26.831,28.535,16.61,41.311,4.685c0,0-8.092-7.666-1.278-17.462S549.87,205.686,549.87,205.686Z" transform="translate(-240.044 -165.477)" fill="#ffb8b8"/>
    <path id="Caminho_10" data-name="Caminho 10" d="M578.828,256.638l-21.945-11.853s-12.79,8.789-36.095-3.307c0,0-29.267,2.383-28.841,6.217s-13.2,25.553-8.518,29.812,7.666-3.833,12.351,4.259,6.814,5.962,6.814,5.962-1.7,28.535,1.7,29.812,58.347-6.814,58.347-6.814,7.24,1.278,3.833-2.129-3.833-3.833-1.7-6.388,5.111-2.129,2.129-4.259a3.869,3.869,0,0,1-1.278-5.111s14.054-5.962,19.591-5.537S583.088,257.915,578.828,256.638Z" transform="translate(-227.691 -175.544)" fill="#575a89"/>
    <path id="Caminho_11" data-name="Caminho 11" d="M512.443,341.194l-.426,16.184s-14.48,197.613,5.111,196.336,20.443-8.518,21.72-9.37,17.036,8.092,19.165-1.278S561.421,415.3,561.421,415.3s48.977,112.434,79.641,98.806,69.42-38.756,60.477-48.552-49.829-35.349-49.829-35.349-.852-7.666-15.758-14.906L587.4,365.47s1.278-1.7-1.7-3.833-2.981,1.7-3.833-3.833.426-3.407-2.129-5.962-2.13-.426-2.555-2.981.426-2.129-.426-2.981-4.259-4.685-4.259-4.685l-4.259-11.073S520.109,332.676,512.443,341.194Z" transform="translate(-234.558 -200.475)" fill="#2f2e41"/>
    <path id="Caminho_12" data-name="Caminho 12" d="M384.089,202.061,444.565,186.3l2.981,6.814L383.663,209.3Z" transform="translate(-107.908 -52.399)" fill="#575a89"/>
    <path id="Caminho_13" data-name="Caminho 13" d="M392.829,212.635,389,232.652h5.111l3.832-20.869Z" transform="translate(-109.408 -59.565)" fill="#575a89"/>
    <path id="Caminho_14" data-name="Caminho 14" d="M534.156,359.248a27.928,27.928,0,0,0,.852,8.944c1.278,5.111,2.981,12.351,2.981,12.351s8.092-4.259,6.814-8.092-5.111-14.48-5.111-14.48Z" transform="translate(-242.216 -208.308)" fill="#575a89"/>
    <path id="Caminho_15" data-name="Caminho 15" d="M561.782,183.51c1.285-1.877.722-4.486,1.642-6.567,1.445-3.268,5.7-3.938,9.271-4.153a27.325,27.325,0,0,1,7.1.191,6.817,6.817,0,0,1,4.838,3.69c.5,1.069.448-2.243.214-6.5a20.537,20.537,0,0,0-15.3-18.749l-.149-.038a38.941,38.941,0,0,0-13.188-1.537c-4.429.412-8.878,2.212-11.718,5.635-1.3,1.564-2.235,3.424-3.677,4.857-2.533,2.518-6.219,3.368-9.613,4.483a28.668,28.668,0,0,0-10.561,5.757,15.538,15.538,0,0,0-5.293,10.553c-.185,4.709,2.694,9.643,7.5,10.688a5.423,5.423,0,0,1,2.291,1.055c4.524,3.686-.826,7.3-.887,11.326-.051,3.359,3.634,5.638,6.985,5.876a13.519,13.519,0,0,0,13.72-10.368,28.181,28.181,0,0,0-.011-8.374c-.3-3.194,6.741-10.528,2.077-5.14A7.886,7.886,0,0,0,545.2,189.8c-.86,4.373,3.1,5.947,5.561,8.441a10.445,10.445,0,0,1,2.267,10.809,12.042,12.042,0,0,0,2.556-15.149c-.782-1.265-1.8-2.373-2.54-3.663-1.153-2.013-1.38-6.336,1.979-6.136C557.424,184.247,559.868,186.305,561.782,183.51Z" transform="translate(-236.942 -149.743)" fill="#2f2e41"/>
    <rect id="Retângulo_3" data-name="Retângulo 3" width="26.212" height="26.212" transform="translate(456.4 126.729) rotate(150)" fill="#ffc211"/>
    <rect id="Retângulo_8" data-name="Retângulo 8" width="26.212" height="26.212" transform="translate(218.4 34.729) rotate(150)" fill="#e41e26"/>
    <rect id="Retângulo_4" data-name="Retângulo 4" width="26.212" height="26.212" transform="translate(121.186 154.948) rotate(150)" fill="#bfe96c"/>
    <rect id="Retângulo_5" data-name="Retângulo 5" width="26.212" height="26.212" transform="translate(411.12 374.695) rotate(150)" fill="#d0cde1"/>
    <rect id="Retângulo_6" data-name="Retângulo 6" width="24.437" height="24.437" transform="translate(109.249 305.427)" fill="#fff"/>
    <circle id="Elipse_3" data-name="Elipse 3" cx="11.5" cy="11.5" r="11.5" transform="translate(567.089 219.178)" fill="#fff"/>
  </g>
</svg>
